<?xml version="1.0" encoding="UTF-8"?>
<svg width="245px" height="42px" viewBox="0 0 245 42" version="1.1" xmlns="http://www.w3.org/2000/svg" xmlns:xlink="http://www.w3.org/1999/xlink">
    <!-- Generator: Sketch 51.3 (57544) - http://www.bohemiancoding.com/sketch -->
    <title>Group 35 Copy</title>
    <desc>Created with Sketch.</desc>
    <defs></defs>
    <g id="Current" stroke="none" stroke-width="1" fill="none" fill-rule="evenodd">
        <g id="Group-35-Copy" transform="translate(122.500000, 21.000000) scale(1, -1) translate(-122.500000, -21.000000) ">
            <circle id="Oval-4-Copy-2" fill="#A2CDFD" cx="5" cy="37" r="5"></circle>
            <circle id="Oval-4-Copy-3" fill="#A2CDFD" cx="65" cy="37" r="5"></circle>
            <circle id="Oval-4-Copy-4" fill="#A2CDFD" cx="125" cy="37" r="5"></circle>
            <circle id="Oval-4-Copy-5" fill="#A2CDFD" cx="185" cy="37" r="5"></circle>
            <circle id="Oval-4-Copy-7" fill="#A2CDFD" cx="216" cy="5" r="5"></circle>
            <circle id="Oval-4-Copy-8" fill="#A2CDFD" cx="155" cy="5" r="5"></circle>
            <circle id="Oval-4-Copy-9" fill="#A2CDFD" cx="95" cy="5" r="5"></circle>
            <circle id="Oval-4-Copy-10" fill="#A2CDFD" cx="35" cy="5" r="5"></circle>
            <path d="M4.93360598,37.8544379 C10.7850297,37.8544379 15.9809942,31.789421 20.5214994,19.6593873 C25.1505736,9.88646242 29.7664358,5 34.369086,5 C41.2730614,5 46.7530827,13.6215283 50.4179295,21.4272189 C54.0827763,29.2329096 58.019936,37.8544379 63.8750298,37.8544379" id="Path-14" stroke="#A2CDFD" stroke-width="2" stroke-linejoin="round"></path>
            <path d="M66,37.8544379 C71.8514238,37.8544379 77.0473882,31.789421 81.5878934,19.6593873 C86.2169676,9.88646242 90.8328298,5 95.43548,5 C102.339455,5 107.819477,13.6215283 111.484324,21.4272189 C115.14917,29.2329096 119.08633,37.8544379 124.941424,37.8544379" id="Path-14-Copy" stroke="#A2CDFD" stroke-width="2" stroke-linejoin="round"></path>
            <path d="M186,37.8544379 C191.851424,37.8544379 197.047388,31.789421 201.587893,19.6593873 C206.216968,9.88646242 210.83283,5 215.43548,5 C222.339455,5 227.819477,13.6215283 231.484324,21.4272189 C235.14917,29.2329096 239.08633,37.8544379 244.941424,37.8544379" id="Path-14-Copy-6" stroke="#A2CDFD" stroke-width="2" stroke-linejoin="round"></path>
            <path d="M126,37.8544379 C131.851424,37.8544379 137.047388,31.789421 141.587893,19.6593873 C146.216968,9.88646242 150.83283,5 155.43548,5 C162.339455,5 167.819477,13.6215283 171.484324,21.4272189 C175.14917,29.2329096 179.08633,37.8544379 184.941424,37.8544379" id="Path-14-Copy-2" stroke="#A2CDFD" stroke-width="2" stroke-linejoin="round"></path>
        </g>
    </g>
</svg>